<?xml version="1.0" encoding="iso-8859-1"?>
<!-- Generator: Adobe Illustrator 19.0.0, SVG Export Plug-In . SVG Version: 6.00 Build 0)  -->
<svg version="1.1" id="Layer_1" xmlns="http://www.w3.org/2000/svg" xmlns:xlink="http://www.w3.org/1999/xlink" x="0px" y="0px"
	 viewBox="0 0 512 512" style="enable-background:new 0 0 512 512;" xml:space="preserve">
<g>
	<g>
		<path d="M392.531,221.867c-6.229,0-12.134,1.775-17.229,4.83c-1.877-21.803-20.224-38.963-42.505-38.963
			c-9.199,0-17.732,2.927-24.704,7.893l7.637-152.721c0.358-13.056-3.635-24.559-11.247-32.384C297.785,3.635,288.766,0,278.398,0
			c-29.065,0-36.173,28.45-39.211,40.593c-0.102,0.41-0.171,0.811-0.213,1.22l-8.576,85.76l-8.585-85.837
			C217.837,5.419,196.418,0,184.002,0c-22.562,0-38.938,17.946-38.938,42.974l8.542,238.933c0.171,4.702,3.959,8.38,8.832,8.218
			c4.702-0.171,8.388-4.122,8.226-8.832l-8.533-238.626c0-12.74,6.758-25.6,21.871-25.6c4.437,0,17.937,0,20.838,26.453
			l17.067,170.667c0.435,4.361,4.105,7.68,8.491,7.68c4.386,0,8.055-3.319,8.491-7.68l17.007-170.044
			c5.734-22.528,12.868-27.076,22.502-27.076c5.734,0,10.394,1.801,13.85,5.35c4.378,4.497,6.656,11.605,6.426,19.823
			l-8.542,171.093V230.4c0,4.71,3.823,8.533,8.533,8.533c4.71,0,8.533-3.823,8.533-8.533c0-14.114,11.486-25.6,25.6-25.6
			s25.6,11.486,25.6,25.6V256c0,4.71,3.823,8.533,8.533,8.533c4.71,0,8.533-3.823,8.533-8.533c0-8.934,8.132-17.067,17.067-17.067
			c8.61,0,17.067,8.457,17.067,17.067v110.933c0,37.026-7.902,55.714-16.273,75.494c-6.204,14.66-12.604,29.773-16.606,52.506
			H186.093c-9.438-41.216-31.258-91.324-64.939-149.111c-3.644-6.255-7.305-12.373-10.931-18.321
			c-9.301-15.249-10.402-35.507-2.679-49.271c3.507-6.246,10.419-13.696,23.39-13.696c4.71,0,8.533-3.823,8.533-8.533
			s-3.823-8.533-8.533-8.533c-16.563,0-30.157,7.962-38.272,22.409c-10.769,19.192-9.574,45.918,2.987,66.517
			c3.575,5.854,7.177,11.87,10.76,18.022c34.62,59.401,56.294,110.106,64.427,150.724c0.794,3.994,4.292,6.861,8.363,6.861h204.8
			c4.25,0,7.842-3.123,8.448-7.322c3.533-24.73,10.172-40.422,16.597-55.603c8.661-20.48,17.621-41.651,17.621-82.142V256
			C426.664,238.14,410.391,221.867,392.531,221.867z"/>
	</g>
</g>
<g>
</g>
<g>
</g>
<g>
</g>
<g>
</g>
<g>
</g>
<g>
</g>
<g>
</g>
<g>
</g>
<g>
</g>
<g>
</g>
<g>
</g>
<g>
</g>
<g>
</g>
<g>
</g>
<g>
</g>
</svg>
